<svg width="24" height="24" viewBox="0 0 24 24" fill="currentColor" xmlns="http://www.w3.org/2000/svg">
<g >
<path d="M16.5 13.7996H12.5931C12.1685 15.0006 11.333 16.0128 10.2342 16.6574C9.13549 17.3019 7.84427 17.5373 6.58878 17.3219C5.33329 17.1064 4.19436 16.4541 3.37331 15.4802C2.55225 14.5063 2.10193 13.2735 2.10193 11.9996C2.10193 10.7258 2.55225 9.49296 3.37331 8.51903C4.19436 7.54511 5.33329 6.8928 6.58878 6.67739C7.84427 6.46198 9.13549 6.69734 10.2342 7.34188C11.333 7.98642 12.1685 8.99864 12.5931 10.1996H21.9V13.7996H20.1V17.3996H16.5V13.7996ZM7.5 13.7996C7.97739 13.7996 8.43522 13.61 8.77279 13.2724C9.11035 12.9348 9.3 12.477 9.3 11.9996C9.3 11.5222 9.11035 11.0644 8.77279 10.7268C8.43522 10.3893 7.97739 10.1996 7.5 10.1996C7.02261 10.1996 6.56477 10.3893 6.22721 10.7268C5.88964 11.0644 5.7 11.5222 5.7 11.9996C5.7 12.477 5.88964 12.9348 6.22721 13.2724C6.56477 13.61 7.02261 13.7996 7.5 13.7996Z" fill="currentColor"/>
</g>
</svg>
