<svg width="24" height="24" viewBox="0 0 24 24" fill="none" xmlns="http://www.w3.org/2000/svg">
<g opacity="0.7">
<path d="M10.2 3.90039H13.8C15.7096 3.90039 17.5409 4.65896 18.8912 6.00922C20.2414 7.35948 21 9.19083 21 11.1004C21 13.0099 20.2414 14.8413 18.8912 16.1916C17.5409 17.5418 15.7096 18.3004 13.8 18.3004V21.4504C9.3 19.6504 3 16.9504 3 11.1004C3 9.19083 3.75857 7.35948 5.10883 6.00922C6.45909 4.65896 8.29044 3.90039 10.2 3.90039ZM12 16.5004H13.8C14.5091 16.5004 15.2113 16.3607 15.8665 16.0893C16.5216 15.818 17.1169 15.4202 17.6184 14.9188C18.1198 14.4173 18.5176 13.822 18.7889 13.1669C19.0603 12.5117 19.2 11.8095 19.2 11.1004C19.2 10.3913 19.0603 9.68906 18.7889 9.0339C18.5176 8.37874 18.1198 7.78345 17.6184 7.28201C17.1169 6.78058 16.5216 6.38282 15.8665 6.11144C15.2113 5.84007 14.5091 5.70039 13.8 5.70039H10.2C8.76783 5.70039 7.39432 6.26932 6.38162 7.28201C5.36893 8.29471 4.8 9.66822 4.8 11.1004C4.8 14.3494 7.0158 16.4698 12 18.7324V16.5004Z" fill="#6CCC93"/>
</g>
</svg>
